<?xml version="1.0" encoding="UTF-8" standalone="no"?>
<!DOCTYPE svg PUBLIC "-//W3C//DTD SVG 1.1//EN" "http://www.w3.org/Graphics/SVG/1.1/DTD/svg11.dtd">
<svg width="100%" height="100%" viewBox="0 0 4500 665" version="1.1" xmlns="http://www.w3.org/2000/svg" xmlns:xlink="http://www.w3.org/1999/xlink" xml:space="preserve" xmlns:serif="http://www.serif.com/" style="fill-rule:evenodd;clip-rule:evenodd;stroke-linecap:round;stroke-linejoin:round;stroke-miterlimit:1.5;">
    <g id="Logo-WIde" serif:id="Logo WIde" transform="matrix(1.5,0,0,1.475743,-2880,-1223.100545)">
        <rect x="1920" y="828.803" width="3000" height="450" style="fill:white;fill-opacity:0;"/>
        <g transform="matrix(1,0,0,1,299.910975,-14.385944)">
            <g transform="matrix(0.666667,0,0,0.677625,1804.50714,831.499107)">
                <circle cx="358.31" cy="332.676" r="67.606" style="fill:white;fill-opacity:0;stroke:rgb(0,109,21);stroke-width:70.83px;"/>
                <g transform="matrix(1,0,0,1,0,-36.056338)">
                    <path d="M425.915,368.732L425.915,537.746C425.915,575.059 395.622,605.352 358.31,605.352C320.997,605.352 290.704,575.059 290.704,537.746" style="fill:white;fill-opacity:0;stroke:rgb(0,109,21);stroke-width:70.83px;"/>
                </g>
            </g>
            <g transform="matrix(0.666667,0,0,0.677625,1971.267703,820.370936)">
                <path d="M290.704,417.183L290.704,332.676C290.704,295.363 320.997,265.07 358.31,265.07C395.622,265.07 425.915,295.363 425.915,332.676" style="fill:white;fill-opacity:0;stroke:rgb(0,109,21);stroke-width:70.83px;"/>
            </g>
            <g transform="matrix(0.666667,0,0,0.677625,3760.306492,820.370936)">
                <path d="M290.704,417.183L290.704,332.676C290.704,295.363 320.997,265.07 358.31,265.07C395.622,265.07 425.915,295.363 425.915,332.676" style="fill:white;fill-opacity:0;stroke:rgb(0,109,21);stroke-width:70.83px;"/>
            </g>
            <g transform="matrix(0.666667,0,0,0.677625,1804.50714,831.823747)">
                <g>
                    <g transform="matrix(1,0,0,1,493.521127,0)">
                        <path d="M358.31,265.07C395.622,265.07 425.915,295.363 425.915,332.676L290.704,341.127" style="fill:white;fill-opacity:0;stroke:rgb(0,109,21);stroke-width:70.83px;"/>
                    </g>
                    <g transform="matrix(1,0,0,1,493.521127,0)">
                        <path d="M358.31,400.282C320.997,400.282 290.704,369.989 290.704,332.676C290.704,295.363 320.997,265.07 358.31,265.07" style="fill:white;fill-opacity:0;stroke:rgb(0,109,21);stroke-width:70.83px;"/>
                    </g>
                </g>
                <g transform="matrix(1.373512,0,0,1.030134,234.330986,128.976673)">
                    <ellipse cx="449.577" cy="163.662" rx="23.662" ry="31.549" style="fill:white;stroke:rgb(0,109,21);stroke-width:0.82px;"/>
                </g>
            </g>
            <g transform="matrix(0.666667,0,0,0.677625,1974.272398,832.501371)">
                <g>
                    <g transform="matrix(1,0,0,1,493.521127,0)">
                        <path d="M358.31,265.07C395.622,265.07 425.915,295.363 425.915,332.676L290.704,341.127" style="fill:white;fill-opacity:0;stroke:rgb(0,109,21);stroke-width:70.83px;"/>
                    </g>
                    <g transform="matrix(1,0,0,1,493.521127,0)">
                        <path d="M358.31,400.282C320.997,400.282 290.704,369.989 290.704,332.676C290.704,295.363 320.997,265.07 358.31,265.07" style="fill:white;fill-opacity:0;stroke:rgb(0,109,21);stroke-width:70.83px;"/>
                    </g>
                </g>
                <g transform="matrix(1.373512,0,0,1.030134,234.330986,128.976673)">
                    <ellipse cx="449.577" cy="163.662" rx="23.662" ry="31.549" style="fill:white;stroke:rgb(0,109,21);stroke-width:0.82px;"/>
                </g>
            </g>
            <g transform="matrix(0.666667,0,0,0.677625,1930.704315,828.473799)">
                <g transform="matrix(1,0,0,1,806.760575,-12.957746)">
                    <path d="M290.704,417.183L290.704,332.676C290.704,295.363 320.997,265.07 358.31,265.07C395.622,265.07 425.915,295.363 425.915,332.676" style="fill:white;fill-opacity:0;stroke:rgb(0,109,21);stroke-width:70.83px;"/>
                </g>
                <g transform="matrix(1,0,0,0.888889,-189.295763,33.395931)">
                    <path d="M1421.972,341.127L1421.972,417.183" style="fill:none;stroke:rgb(0,109,21);stroke-width:74.87px;"/>
                </g>
            </g>
            <g transform="matrix(0.666667,0,0,0.677625,2234.929613,829.041186)">
                <g transform="matrix(1,0,0,1,806.760575,-12.957746)">
                    <path d="M290.704,417.183L290.704,332.676C290.704,295.363 320.997,265.07 358.31,265.07C395.622,265.07 425.915,295.363 425.915,332.676" style="fill:white;fill-opacity:0;stroke:rgb(0,109,21);stroke-width:70.83px;"/>
                </g>
                <g transform="matrix(1,0,0,0.888889,-189.295763,33.395931)">
                    <path d="M1421.972,341.127L1421.972,417.183" style="fill:none;stroke:rgb(0,109,21);stroke-width:74.87px;"/>
                </g>
            </g>
            <g transform="matrix(0.643951,-0.175382,0.172546,0.654535,1905.976869,1090.536272)">
                <g transform="matrix(1,0,0,1,1052.394303,-4.507042)">
                    <path d="M358.31,265.07C380.662,265.07 400.495,275.941 412.805,292.68" style="fill:white;fill-opacity:0;stroke:rgb(0,109,21);stroke-width:70.83px;"/>
                </g>
                <g transform="matrix(1,0,0,1,1052.394303,-4.507042)">
                    <path d="M358.31,400.282C320.997,400.282 290.704,369.989 290.704,332.676C290.704,295.363 320.997,265.07 358.31,265.07" style="fill:white;fill-opacity:0;stroke:rgb(0,109,21);stroke-width:70.83px;"/>
                </g>
            </g>
            <g transform="matrix(0.666667,0,0,0.677625,1930.704315,834.55319)">
                <path d="M1553.803,273.734L1553.803,82.324" style="fill:none;stroke:rgb(0,109,21);stroke-width:70.83px;"/>
            </g>
            <g transform="matrix(0.666667,0,0,0.677625,2601.502333,832.501371)">
                <g>
                    <g transform="matrix(1,0,0,1,493.521127,0)">
                        <path d="M358.31,265.07C395.622,265.07 425.915,295.363 425.915,332.676L290.704,341.127" style="fill:white;fill-opacity:0;stroke:rgb(0,109,21);stroke-width:70.83px;"/>
                    </g>
                    <g transform="matrix(1,0,0,1,493.521127,0)">
                        <path d="M358.31,400.282C320.997,400.282 290.704,369.989 290.704,332.676C290.704,295.363 320.997,265.07 358.31,265.07" style="fill:white;fill-opacity:0;stroke:rgb(0,109,21);stroke-width:70.83px;"/>
                    </g>
                </g>
                <g transform="matrix(1.373512,0,0,1.030134,234.330986,128.976673)">
                    <ellipse cx="449.577" cy="163.662" rx="23.662" ry="31.549" style="fill:white;stroke:rgb(0,109,21);stroke-width:0.82px;"/>
                </g>
            </g>
            <g transform="matrix(1,0,0,1,0,-7.325014)">
                <g transform="matrix(0.666667,0,0,0.677625,2556.056316,837.154063)">
                    <g transform="matrix(1,0,0,1,806.760575,-12.957746)">
                        <path d="M290.704,417.183L290.704,332.676C290.704,295.363 320.997,265.07 358.31,265.07C395.622,265.07 425.915,295.363 425.915,332.676" style="fill:white;fill-opacity:0;stroke:rgb(0,109,21);stroke-width:70.83px;"/>
                    </g>
                    <g transform="matrix(1,0,0,0.888889,-189.295763,33.395931)">
                        <path d="M1421.972,341.127L1421.972,417.183" style="fill:none;stroke:rgb(0,109,21);stroke-width:74.87px;"/>
                    </g>
                </g>
                <g transform="matrix(0.666667,0,0,0.677625,2646.197161,837.154063)">
                    <g transform="matrix(1,0,0,1,806.760575,-12.957746)">
                        <path d="M290.704,417.183L290.704,332.676C290.704,295.363 320.997,265.07 358.31,265.07C395.622,265.07 425.915,295.363 425.915,332.676" style="fill:white;fill-opacity:0;stroke:rgb(0,109,21);stroke-width:70.83px;"/>
                    </g>
                    <g transform="matrix(1,0,0,0.888889,-189.295763,33.395931)">
                        <path d="M1421.972,341.127L1421.972,417.183" style="fill:none;stroke:rgb(0,109,21);stroke-width:74.87px;"/>
                    </g>
                </g>
            </g>
            <g transform="matrix(1,0,0,1,0,-6.474475)">
                <g transform="matrix(-0.666667,-0,0,-0.677625,4080.582484,1289.834834)">
                    <path d="M294.249,328.54C294.249,291.227 320.997,265.07 358.31,265.07C395.622,265.07 425.915,295.363 425.915,332.676" style="fill:white;fill-opacity:0;stroke:rgb(0,109,21);stroke-width:70.83px;"/>
                </g>
                <g transform="matrix(0.479335,0,0,0.993385,2619.081067,640.009214)">
                    <path d="M2456.648,269.049L2456.648,416.549" style="fill:none;stroke:rgb(0,109,21);stroke-width:61.35px;"/>
                </g>
                <g transform="matrix(0.666667,0,0,0.677625,1920,828.803068)">
                    <path d="M2814.958,263.181L2922.897,263.181" style="fill:none;stroke:rgb(0,109,21);stroke-width:70.83px;"/>
                </g>
            </g>
            <g transform="matrix(1,0,0,1,0,-8.002639)">
                <g transform="matrix(0.666667,0,0,0.677625,1920,828.803068)">
                    <path d="M2456.648,269.049L2456.648,416.549" style="fill:none;stroke:rgb(0,109,21);stroke-width:70.83px;"/>
                </g>
                <g transform="matrix(0.915675,0,0,0.698044,3146.098991,832.342792)">
                    <ellipse cx="449.577" cy="163.662" rx="23.662" ry="31.549" style="fill:rgb(0,109,21);stroke:rgb(0,109,21);stroke-width:0.82px;"/>
                </g>
            </g>
            <g transform="matrix(0.874491,0,0,1,225.592564,-10.713137)">
                <g transform="matrix(0,0.423515,-0.559055,0,4132.667881,591.720322)">
                    <g transform="matrix(1,0,0,1,806.760575,-12.957746)">
                        <path d="M290.704,349.577C290.704,349.577 290.704,369.989 290.704,332.676C290.704,295.363 320.997,265.07 358.31,265.07C395.622,265.07 425.915,295.363 425.915,332.676" style="fill:white;fill-opacity:0;stroke:rgb(0,109,21);stroke-width:103.96px;"/>
                    </g>
                    <g transform="matrix(1,0,0,0.888889,-189.295763,33.395931)">
                        <path d="M1421.972,341.127L1421.972,417.183" style="fill:none;stroke:rgb(0,109,21);stroke-width:110.93px;"/>
                    </g>
                </g>
                <g transform="matrix(-0,-0.399844,0.588871,-0,3750.977631,1495.327768)">
                    <g transform="matrix(1,0,0,1,806.760575,-12.957746)">
                        <path d="M290.704,370.573L290.704,332.676C290.704,295.363 320.997,265.07 358.31,265.07C395.622,265.07 425.915,295.363 425.915,332.676" style="fill:white;fill-opacity:0;stroke:rgb(0,109,21);stroke-width:103.06px;"/>
                    </g>
                    <g transform="matrix(1,0,0,0.888889,-189.295763,33.395931)">
                        <path d="M1421.972,341.127L1421.972,417.183" style="fill:none;stroke:rgb(0,109,21);stroke-width:110.65px;"/>
                    </g>
                </g>
            </g>
            <g transform="matrix(1,0,0,1,0,-19.375549)">
                <g transform="matrix(-0.666667,-0,0,-0.677625,4933.339302,1293.955419)">
                    <g transform="matrix(1,0,0,1,806.760575,-12.957746)">
                        <path d="M290.704,417.183L290.704,332.676C290.704,295.363 320.997,265.07 358.31,265.07C395.622,265.07 425.915,295.363 425.915,332.676" style="fill:white;fill-opacity:0;stroke:rgb(0,109,21);stroke-width:70.83px;"/>
                    </g>
                    <g transform="matrix(1,0,0,0.888889,-189.295763,33.395931)">
                        <path d="M1421.972,341.127L1421.972,417.183" style="fill:none;stroke:rgb(0,109,21);stroke-width:74.87px;"/>
                    </g>
                </g>
                <g transform="matrix(-0.666667,-0,0,-0.677625,5237.5646,1287.088166)">
                    <path d="M1553.803,273.734L1553.803,82.324" style="fill:none;stroke:rgb(0,109,21);stroke-width:70.83px;"/>
                </g>
            </g>
            <g transform="matrix(0.666667,0,0,0.677625,4155.099736,832.077287)">
                <circle cx="358.31" cy="332.676" r="67.606" style="fill:white;fill-opacity:0;stroke:rgb(0,109,21);stroke-width:70.83px;"/>
                <g transform="matrix(1,0,0,1,-3352.649605,-24.691042)">
                    <path d="M3778.565,357.367L3778.565,440.599" style="fill:none;stroke:rgb(0,109,21);stroke-width:70.83px;"/>
                </g>
            </g>
            <g transform="matrix(0.915675,0,0,0.698044,3868.118567,970.864151)">
                <ellipse cx="449.577" cy="163.662" rx="23.662" ry="31.549" style="fill:white;stroke:rgb(0,109,21);stroke-width:0.82px;"/>
            </g>
            <g transform="matrix(1,0,0,1,46.572747,-6.64739)">
                <g>
                    <g transform="matrix(0.666667,0,0,0.677625,2840.930283,828.803068)">
                        <path d="M2456.648,269.049L2456.648,416.549" style="fill:none;stroke:rgb(0,109,21);stroke-width:70.83px;"/>
                    </g>
                    <g transform="matrix(0.915675,0,0,0.698044,4067.029274,832.342792)">
                        <ellipse cx="449.577" cy="163.662" rx="23.662" ry="31.549" style="fill:rgb(0,109,21);stroke:rgb(0,109,21);stroke-width:0.82px;"/>
                    </g>
                </g>
            </g>
        </g>
        <g transform="matrix(0.915675,0,0,0.698044,1583.859483,889.84256)">
            <ellipse cx="449.577" cy="163.662" rx="23.662" ry="31.549" style="fill:rgb(0,109,21);stroke:rgb(0,109,21);stroke-width:0.82px;"/>
        </g>
        <g transform="matrix(0.915675,0,0,0.698044,1583.859483,958.849893)">
            <ellipse cx="449.577" cy="163.662" rx="23.662" ry="31.549" style="fill:rgb(0,109,21);stroke:rgb(0,109,21);stroke-width:0.82px;"/>
        </g>
        <g transform="matrix(0.666667,0,0,0.677625,1934.276377,828.991484)">
            <path d="M193.326,258.394L353.566,258.394" style="fill:none;stroke:rgb(0,109,21);stroke-width:70.83px;"/>
        </g>
        <g transform="matrix(0.666667,0,0,0.677625,1934.276377,896.643568)">
            <path d="M193.326,258.394L353.566,258.394" style="fill:none;stroke:rgb(0,109,21);stroke-width:70.83px;"/>
        </g>
    </g>
</svg>
