<?xml version="1.0" encoding="UTF-8" standalone="no"?>
<!DOCTYPE svg PUBLIC "-//W3C//DTD SVG 1.1//EN" "http://www.w3.org/Graphics/SVG/1.1/DTD/svg11.dtd">
<svg width="100%" height="100%" viewBox="0 0 616 661" version="1.1" xmlns="http://www.w3.org/2000/svg" xmlns:xlink="http://www.w3.org/1999/xlink" xml:space="preserve" xmlns:serif="http://www.serif.com/" style="fill-rule:evenodd;clip-rule:evenodd;stroke-linecap:round;stroke-linejoin:round;stroke-miterlimit:1.5;">
    <g transform="matrix(1,0,0,1,0,-870.112676)">
        <g id="Logomark---Dark" serif:id="Logomark - Dark" transform="matrix(0.635047,0,0,1,-360.28207,-148.549277)">
            <rect x="567.331" y="1018.662" width="969.64" height="660.106" style="fill:none;"/>
            <g transform="matrix(1.574687,0,0,1,567.331398,148.549277)">
                <circle cx="319.668" cy="1196.73" r="240.317" style="fill:rgb(236,184,21);stroke:rgb(236,184,21);stroke-width:70.83px;"/>
            </g>
            <g transform="matrix(2.162851,0,0,1.030134,-100.669885,1129.202466)">
                <ellipse cx="449.577" cy="163.662" rx="23.662" ry="31.549" style="fill:rgb(28,56,34);stroke:rgb(0,109,21);stroke-width:0.82px;"/>
            </g>
            <g transform="matrix(2.162851,0,0,1.030134,-100.669885,1231.039573)">
                <ellipse cx="449.577" cy="163.662" rx="23.662" ry="31.549" style="fill:rgb(28,56,34);stroke:rgb(0,109,21);stroke-width:0.82px;"/>
            </g>
            <g transform="matrix(1.574687,0,0,1,727.025369,1039.401901)">
                <path d="M193.326,258.394L353.566,258.394" style="fill:none;stroke:rgb(28,56,34);stroke-width:70.83px;"/>
            </g>
            <g transform="matrix(1.574687,0,0,1,727.025369,1139.239008)">
                <path d="M193.326,258.394L353.566,258.394" style="fill:none;stroke:rgb(28,56,34);stroke-width:70.83px;"/>
            </g>
        </g>
    </g>
</svg>
